<svg xmlns="http://www.w3.org/2000/svg" xmlns:xlink="http://www.w3.org/1999/xlink" width="1625" zoomAndPan="magnify" viewBox="0 0 1218.75 1496.999938" height="1996" preserveAspectRatio="xMidYMid meet" version="1.0"><defs><clipPath id="553546a479"><path d="M 0 0.152344 L 932.191406 0.152344 L 932.191406 207.570312 L 0 207.570312 Z M 0 0.152344 " clip-rule="nonzero"/></clipPath><clipPath id="009cc494ff"><path d="M 0 0.152344 L 932.191406 0.152344 L 932.191406 207.570312 L 0 207.570312 Z M 0 0.152344 " clip-rule="nonzero"/></clipPath><clipPath id="002838bbdb"><rect x="0" width="933" y="0" height="208"/></clipPath><clipPath id="b28ca48f0c"><path d="M 0 0.152344 L 207.414062 0.152344 L 207.414062 1496.84375 L 0 1496.84375 Z M 0 0.152344 " clip-rule="nonzero"/></clipPath><clipPath id="8fd7f12869"><path d="M 0 0.152344 L 207.414062 0.152344 L 207.414062 1496.84375 L 0 1496.84375 Z M 0 0.152344 " clip-rule="nonzero"/></clipPath><clipPath id="5e7d66b17e"><rect x="0" width="208" y="0" height="1497"/></clipPath><clipPath id="6e49bcbd3a"><path d="M 0 1289.429688 L 1139.609375 1289.429688 L 1139.609375 1496.84375 L 0 1496.84375 Z M 0 1289.429688 " clip-rule="nonzero"/></clipPath><clipPath id="6ee1b1c6e6"><path d="M 0 0.429688 L 1139.609375 0.429688 L 1139.609375 207.84375 L 0 207.84375 Z M 0 0.429688 " clip-rule="nonzero"/></clipPath><clipPath id="e2b8c64086"><rect x="0" width="1140" y="0" height="208"/></clipPath><clipPath id="30071d324e"><path d="M 775.292969 796.804688 L 1139.609375 796.804688 L 1139.609375 1004.222656 L 775.292969 1004.222656 Z M 775.292969 796.804688 " clip-rule="nonzero"/></clipPath><clipPath id="302de92e2c"><path d="M 0.292969 0.804688 L 364.609375 0.804688 L 364.609375 208.222656 L 0.292969 208.222656 Z M 0.292969 0.804688 " clip-rule="nonzero"/></clipPath><clipPath id="7136a7aa16"><rect x="0" width="365" y="0" height="209"/></clipPath><clipPath id="4a61909e06"><path d="M 932.191406 796.804688 L 1139.605469 796.804688 L 1139.605469 1496.84375 L 932.191406 1496.84375 Z M 932.191406 796.804688 " clip-rule="nonzero"/></clipPath><clipPath id="efd412e881"><path d="M 0.191406 0.804688 L 207.605469 0.804688 L 207.605469 700.84375 L 0.191406 700.84375 Z M 0.191406 0.804688 " clip-rule="nonzero"/></clipPath><clipPath id="7caa1c77fe"><rect x="0" width="208" y="0" height="701"/></clipPath><clipPath id="1f567940ab"><path d="M 466.109375 796.804688 L 673.496094 796.804688 L 673.496094 1004.222656 L 466.109375 1004.222656 Z M 466.109375 796.804688 " clip-rule="nonzero"/></clipPath><clipPath id="0a7398d603"><path d="M 0.109375 0.804688 L 207.496094 0.804688 L 207.496094 208.222656 L 0.109375 208.222656 Z M 0.109375 0.804688 " clip-rule="nonzero"/></clipPath><clipPath id="8b4d05c4be"><rect x="0" width="208" y="0" height="209"/></clipPath></defs><g clip-path="url(#553546a479)"><g transform="matrix(1, 0, 0, 1, 0, -0.000000000000093536)"><g clip-path="url(#002838bbdb)"><g clip-path="url(#009cc494ff)"><path fill="#f5f5f2" d="M 0 0.152344 L 932.558594 0.152344 L 932.558594 207.570312 L 0 207.570312 Z M 0 0.152344 " fill-opacity="1" fill-rule="nonzero"/></g></g></g></g><g clip-path="url(#b28ca48f0c)"><g transform="matrix(1, 0, 0, 1, 0, -0.000000000000093536)"><g clip-path="url(#5e7d66b17e)"><g clip-path="url(#8fd7f12869)"><path fill="#f5f5f2" d="M 207.414062 0.152344 L 207.414062 1496.625 L -0.00390625 1496.625 L -0.00390625 0.152344 Z M 207.414062 0.152344 " fill-opacity="1" fill-rule="nonzero"/></g></g></g></g><g clip-path="url(#6e49bcbd3a)"><g transform="matrix(1, 0, 0, 1, 0, 1289)"><g clip-path="url(#e2b8c64086)"><g clip-path="url(#6ee1b1c6e6)"><path fill="#f5f5f2" d="M 0 0.429688 L 1139.976562 0.429688 L 1139.976562 207.847656 L 0 207.847656 Z M 0 0.429688 " fill-opacity="1" fill-rule="nonzero"/></g></g></g></g><g clip-path="url(#30071d324e)"><g transform="matrix(1, 0, 0, 1, 775, 796)"><g clip-path="url(#7136a7aa16)"><g clip-path="url(#302de92e2c)"><path fill="#f5f5f2" d="M 0.292969 0.804688 L 364.890625 0.804688 L 364.890625 208.222656 L 0.292969 208.222656 Z M 0.292969 0.804688 " fill-opacity="1" fill-rule="nonzero"/></g></g></g></g><g clip-path="url(#4a61909e06)"><g transform="matrix(1, 0, 0, 1, 932, 796)"><g clip-path="url(#7caa1c77fe)"><g clip-path="url(#efd412e881)"><path fill="#f5f5f2" d="M 207.605469 0.804688 L 207.605469 700.832031 L 0.191406 700.832031 L 0.191406 0.804688 Z M 207.605469 0.804688 " fill-opacity="1" fill-rule="nonzero"/></g></g></g></g><g clip-path="url(#1f567940ab)"><g transform="matrix(1, 0, 0, 1, 466, 796)"><g clip-path="url(#8b4d05c4be)"><g clip-path="url(#0a7398d603)"><path fill="#c8f000" d="M 0.109375 0.804688 L 207.496094 0.804688 L 207.496094 208.191406 L 0.109375 208.191406 Z M 0.109375 0.804688 " fill-opacity="1" fill-rule="nonzero"/></g></g></g></g></svg>