<svg xmlns="http://www.w3.org/2000/svg" xmlns:xlink="http://www.w3.org/1999/xlink" width="2000" zoomAndPan="magnify" viewBox="0 0 1500 1499.999933" height="2000" preserveAspectRatio="xMidYMid meet" version="1.0"><defs><clipPath id="55978a6baf"><path d="M 792 644 L 1315.5 644 L 1315.5 1170 L 792 1170 Z M 792 644 " clip-rule="nonzero"/></clipPath></defs><path fill="#0d0d0d" d="M 797.902344 1084.632812 L 797.902344 1350 L 786.3125 1349.425781 C 556.296875 1338.550781 384.433594 1240.03125 275.496094 1056.527344 C 214.96875 954.550781 184.65625 849.863281 185.425781 745.414062 C 186.214844 640.992188 218.039062 536.710938 280.03125 435.527344 C 390.046875 255.984375 560.230469 160.078125 785.929688 150.480469 L 797.519531 150 L 797.519531 414.671875 L 786.816406 415.078125 C 574.65625 423.191406 458.113281 591.433594 456.214844 745.65625 C 454.199219 905.664062 580.105469 1080.71875 787.03125 1084.441406 Z M 797.902344 1084.632812 " fill-opacity="1" fill-rule="nonzero"/><g clip-path="url(#55978a6baf)"><path fill="#c8f000" d="M 1075.582031 1169.304688 C 1075.582031 1075.34375 1075.582031 983.160156 1075.582031 888.433594 C 981.742188 888.433594 889.175781 888.433594 795.3125 888.433594 C 794.375 880.65625 793.199219 875.28125 793.199219 869.878906 C 793.105469 801.527344 793.390625 733.199219 792.984375 664.847656 C 792.910156 651.503906 794.976562 644.351562 811.078125 644.398438 C 975.238281 644.902344 1139.398438 644.734375 1303.558594 644.785156 C 1306.992188 644.785156 1310.425781 645.382812 1315.296875 645.816406 C 1315.296875 820.199219 1315.296875 993.839844 1315.296875 1169.28125 C 1236.527344 1169.304688 1157.472656 1169.304688 1075.582031 1169.304688 Z M 1075.582031 1169.304688 " fill-opacity="1" fill-rule="nonzero"/></g></svg>