<svg xmlns="http://www.w3.org/2000/svg" xmlns:xlink="http://www.w3.org/1999/xlink" width="1625" zoomAndPan="magnify" viewBox="0 0 1218.75 1496.999938" height="1996" preserveAspectRatio="xMidYMid meet" version="1.0"><defs><clipPath id="46f3a8388c"><path d="M 0 0.152344 L 932.191406 0.152344 L 932.191406 207.570312 L 0 207.570312 Z M 0 0.152344 " clip-rule="nonzero"/></clipPath><clipPath id="5ca98b51f6"><path d="M 0 0.152344 L 932.191406 0.152344 L 932.191406 207.570312 L 0 207.570312 Z M 0 0.152344 " clip-rule="nonzero"/></clipPath><clipPath id="b0dea8aa25"><rect x="0" width="933" y="0" height="208"/></clipPath><clipPath id="81de36ef13"><path d="M 0 0.152344 L 207.414062 0.152344 L 207.414062 1496.84375 L 0 1496.84375 Z M 0 0.152344 " clip-rule="nonzero"/></clipPath><clipPath id="93c7a3d9e7"><path d="M 0 0.152344 L 207.414062 0.152344 L 207.414062 1496.84375 L 0 1496.84375 Z M 0 0.152344 " clip-rule="nonzero"/></clipPath><clipPath id="060211fe8f"><rect x="0" width="208" y="0" height="1497"/></clipPath><clipPath id="c3fed19958"><path d="M 0 1289.429688 L 1139.609375 1289.429688 L 1139.609375 1496.84375 L 0 1496.84375 Z M 0 1289.429688 " clip-rule="nonzero"/></clipPath><clipPath id="a7f4fc23b5"><path d="M 0 0.429688 L 1139.609375 0.429688 L 1139.609375 207.84375 L 0 207.84375 Z M 0 0.429688 " clip-rule="nonzero"/></clipPath><clipPath id="493e0f1355"><rect x="0" width="1140" y="0" height="208"/></clipPath><clipPath id="cdd110c1a5"><path d="M 775.292969 796.804688 L 1139.609375 796.804688 L 1139.609375 1004.222656 L 775.292969 1004.222656 Z M 775.292969 796.804688 " clip-rule="nonzero"/></clipPath><clipPath id="f9fe5a89af"><path d="M 0.292969 0.804688 L 364.609375 0.804688 L 364.609375 208.222656 L 0.292969 208.222656 Z M 0.292969 0.804688 " clip-rule="nonzero"/></clipPath><clipPath id="3c90e53de8"><rect x="0" width="365" y="0" height="209"/></clipPath><clipPath id="a5a7e91ab5"><path d="M 932.191406 796.804688 L 1139.605469 796.804688 L 1139.605469 1496.84375 L 932.191406 1496.84375 Z M 932.191406 796.804688 " clip-rule="nonzero"/></clipPath><clipPath id="b844f34774"><path d="M 0.191406 0.804688 L 207.605469 0.804688 L 207.605469 700.84375 L 0.191406 700.84375 Z M 0.191406 0.804688 " clip-rule="nonzero"/></clipPath><clipPath id="9f914abe8f"><rect x="0" width="208" y="0" height="701"/></clipPath><clipPath id="5d15590ba5"><path d="M 466.109375 796.804688 L 673.496094 796.804688 L 673.496094 1004.222656 L 466.109375 1004.222656 Z M 466.109375 796.804688 " clip-rule="nonzero"/></clipPath><clipPath id="26b8cb347c"><path d="M 0.109375 0.804688 L 207.496094 0.804688 L 207.496094 208.222656 L 0.109375 208.222656 Z M 0.109375 0.804688 " clip-rule="nonzero"/></clipPath><clipPath id="cdbb52cc58"><rect x="0" width="208" y="0" height="209"/></clipPath></defs><g clip-path="url(#46f3a8388c)"><g transform="matrix(1, 0, 0, 1, 0, -0.000000000000093536)"><g clip-path="url(#b0dea8aa25)"><g clip-path="url(#5ca98b51f6)"><path fill="#0d0d0d" d="M 0 0.152344 L 932.558594 0.152344 L 932.558594 207.570312 L 0 207.570312 Z M 0 0.152344 " fill-opacity="1" fill-rule="nonzero"/></g></g></g></g><g clip-path="url(#81de36ef13)"><g transform="matrix(1, 0, 0, 1, 0, -0.000000000000093536)"><g clip-path="url(#060211fe8f)"><g clip-path="url(#93c7a3d9e7)"><path fill="#0d0d0d" d="M 207.414062 0.152344 L 207.414062 1496.625 L -0.00390625 1496.625 L -0.00390625 0.152344 Z M 207.414062 0.152344 " fill-opacity="1" fill-rule="nonzero"/></g></g></g></g><g clip-path="url(#c3fed19958)"><g transform="matrix(1, 0, 0, 1, 0, 1289)"><g clip-path="url(#493e0f1355)"><g clip-path="url(#a7f4fc23b5)"><path fill="#0d0d0d" d="M 0 0.429688 L 1139.976562 0.429688 L 1139.976562 207.847656 L 0 207.847656 Z M 0 0.429688 " fill-opacity="1" fill-rule="nonzero"/></g></g></g></g><g clip-path="url(#cdd110c1a5)"><g transform="matrix(1, 0, 0, 1, 775, 796)"><g clip-path="url(#3c90e53de8)"><g clip-path="url(#f9fe5a89af)"><path fill="#0d0d0d" d="M 0.292969 0.804688 L 364.890625 0.804688 L 364.890625 208.222656 L 0.292969 208.222656 Z M 0.292969 0.804688 " fill-opacity="1" fill-rule="nonzero"/></g></g></g></g><g clip-path="url(#a5a7e91ab5)"><g transform="matrix(1, 0, 0, 1, 932, 796)"><g clip-path="url(#9f914abe8f)"><g clip-path="url(#b844f34774)"><path fill="#0d0d0d" d="M 207.605469 0.804688 L 207.605469 700.832031 L 0.191406 700.832031 L 0.191406 0.804688 Z M 207.605469 0.804688 " fill-opacity="1" fill-rule="nonzero"/></g></g></g></g><g clip-path="url(#5d15590ba5)"><g transform="matrix(1, 0, 0, 1, 466, 796)"><g clip-path="url(#cdbb52cc58)"><g clip-path="url(#26b8cb347c)"><path fill="#c8f000" d="M 0.109375 0.804688 L 207.496094 0.804688 L 207.496094 208.191406 L 0.109375 208.191406 Z M 0.109375 0.804688 " fill-opacity="1" fill-rule="nonzero"/></g></g></g></g></svg>