<svg xmlns="http://www.w3.org/2000/svg" xmlns:xlink="http://www.w3.org/1999/xlink" width="1625" zoomAndPan="magnify" viewBox="0 0 1218.75 1496.999938" height="1996" preserveAspectRatio="xMidYMid meet" version="1.0"><defs><clipPath id="9a63be934a"><path d="M 0 0.152344 L 932.191406 0.152344 L 932.191406 207.570312 L 0 207.570312 Z M 0 0.152344 " clip-rule="nonzero"/></clipPath><clipPath id="ce93154a95"><path d="M 0 0.152344 L 932.191406 0.152344 L 932.191406 207.570312 L 0 207.570312 Z M 0 0.152344 " clip-rule="nonzero"/></clipPath><clipPath id="812e0bbfbd"><rect x="0" width="933" y="0" height="208"/></clipPath><clipPath id="720f723aa4"><path d="M 0 0.152344 L 207.414062 0.152344 L 207.414062 1496.84375 L 0 1496.84375 Z M 0 0.152344 " clip-rule="nonzero"/></clipPath><clipPath id="660f6caa0d"><path d="M 0 0.152344 L 207.414062 0.152344 L 207.414062 1496.84375 L 0 1496.84375 Z M 0 0.152344 " clip-rule="nonzero"/></clipPath><clipPath id="d032f88146"><rect x="0" width="208" y="0" height="1497"/></clipPath><clipPath id="ef240ecf49"><path d="M 0 1289.429688 L 1139.609375 1289.429688 L 1139.609375 1496.84375 L 0 1496.84375 Z M 0 1289.429688 " clip-rule="nonzero"/></clipPath><clipPath id="69fd6482d5"><path d="M 0 0.429688 L 1139.609375 0.429688 L 1139.609375 207.84375 L 0 207.84375 Z M 0 0.429688 " clip-rule="nonzero"/></clipPath><clipPath id="4ecfb2f652"><rect x="0" width="1140" y="0" height="208"/></clipPath><clipPath id="f2955b7164"><path d="M 775.292969 796.804688 L 1139.609375 796.804688 L 1139.609375 1004.222656 L 775.292969 1004.222656 Z M 775.292969 796.804688 " clip-rule="nonzero"/></clipPath><clipPath id="a7bb8efec5"><path d="M 0.292969 0.804688 L 364.609375 0.804688 L 364.609375 208.222656 L 0.292969 208.222656 Z M 0.292969 0.804688 " clip-rule="nonzero"/></clipPath><clipPath id="3850793587"><rect x="0" width="365" y="0" height="209"/></clipPath><clipPath id="fbbb4f6c32"><path d="M 932.191406 796.804688 L 1139.605469 796.804688 L 1139.605469 1496.84375 L 932.191406 1496.84375 Z M 932.191406 796.804688 " clip-rule="nonzero"/></clipPath><clipPath id="51238f098a"><path d="M 0.191406 0.804688 L 207.605469 0.804688 L 207.605469 700.84375 L 0.191406 700.84375 Z M 0.191406 0.804688 " clip-rule="nonzero"/></clipPath><clipPath id="9706f7e8c0"><rect x="0" width="208" y="0" height="701"/></clipPath><clipPath id="cb4349a0a0"><path d="M 466.109375 796.804688 L 673.496094 796.804688 L 673.496094 1004.222656 L 466.109375 1004.222656 Z M 466.109375 796.804688 " clip-rule="nonzero"/></clipPath><clipPath id="c47a531d45"><path d="M 0.109375 0.804688 L 207.496094 0.804688 L 207.496094 208.222656 L 0.109375 208.222656 Z M 0.109375 0.804688 " clip-rule="nonzero"/></clipPath><clipPath id="a55b5a1a6c"><rect x="0" width="208" y="0" height="209"/></clipPath></defs><g clip-path="url(#9a63be934a)"><g transform="matrix(1, 0, 0, 1, 0, 0.000000000000124678)"><g clip-path="url(#812e0bbfbd)"><g clip-path="url(#ce93154a95)"><path fill="#0d0d0d" d="M 0 0.152344 L 932.558594 0.152344 L 932.558594 207.570312 L 0 207.570312 Z M 0 0.152344 " fill-opacity="1" fill-rule="nonzero"/></g></g></g></g><g clip-path="url(#720f723aa4)"><g transform="matrix(1, 0, 0, 1, 0, 0.000000000000124678)"><g clip-path="url(#d032f88146)"><g clip-path="url(#660f6caa0d)"><path fill="#0d0d0d" d="M 207.414062 0.152344 L 207.414062 1496.625 L -0.00390625 1496.625 L -0.00390625 0.152344 Z M 207.414062 0.152344 " fill-opacity="1" fill-rule="nonzero"/></g></g></g></g><g clip-path="url(#ef240ecf49)"><g transform="matrix(1, 0, 0, 1, 0, 1289)"><g clip-path="url(#4ecfb2f652)"><g clip-path="url(#69fd6482d5)"><path fill="#0d0d0d" d="M 0 0.429688 L 1139.976562 0.429688 L 1139.976562 207.847656 L 0 207.847656 Z M 0 0.429688 " fill-opacity="1" fill-rule="nonzero"/></g></g></g></g><g clip-path="url(#f2955b7164)"><g transform="matrix(1, 0, 0, 1, 775, 796)"><g clip-path="url(#3850793587)"><g clip-path="url(#a7bb8efec5)"><path fill="#0d0d0d" d="M 0.292969 0.804688 L 364.890625 0.804688 L 364.890625 208.222656 L 0.292969 208.222656 Z M 0.292969 0.804688 " fill-opacity="1" fill-rule="nonzero"/></g></g></g></g><g clip-path="url(#fbbb4f6c32)"><g transform="matrix(1, 0, 0, 1, 932, 796)"><g clip-path="url(#9706f7e8c0)"><g clip-path="url(#51238f098a)"><path fill="#0d0d0d" d="M 207.605469 0.804688 L 207.605469 700.832031 L 0.191406 700.832031 L 0.191406 0.804688 Z M 207.605469 0.804688 " fill-opacity="1" fill-rule="nonzero"/></g></g></g></g><g clip-path="url(#cb4349a0a0)"><g transform="matrix(1, 0, 0, 1, 466, 796)"><g clip-path="url(#a55b5a1a6c)"><g clip-path="url(#c47a531d45)"><path fill="#0d0d0d" d="M 0.109375 0.804688 L 207.496094 0.804688 L 207.496094 208.191406 L 0.109375 208.191406 Z M 0.109375 0.804688 " fill-opacity="1" fill-rule="nonzero"/></g></g></g></g></svg>