<svg xmlns="http://www.w3.org/2000/svg" xmlns:xlink="http://www.w3.org/1999/xlink" width="2000" zoomAndPan="magnify" viewBox="0 0 1500 442.499987" height="590" preserveAspectRatio="xMidYMid meet" version="1.0"><defs><g/><clipPath id="d14c3a0e71"><path d="M 0.847656 0 L 1499.152344 0 L 1499.152344 442 L 0.847656 442 Z M 0.847656 0 " clip-rule="nonzero"/></clipPath><clipPath id="a02c83672b"><rect x="0" width="1500" y="0" height="442"/></clipPath></defs><g clip-path="url(#d14c3a0e71)"><g transform="matrix(1, 0, 0, 1, 0.000000000000000222, 0)"><g clip-path="url(#a02c83672b)"><g fill="#0d0d0d" fill-opacity="1"><g transform="translate(0.846524, 378.380257)"><g><path d="M 173.859375 5.578125 C 143.179688 5.578125 116.375 -1.394531 93.4375 -15.34375 C 70.507812 -29.289062 52.691406 -48.738281 39.984375 -73.6875 C 27.273438 -98.632812 20.921875 -127.6875 20.921875 -160.84375 C 20.921875 -194.3125 27.503906 -223.828125 40.671875 -249.390625 C 53.847656 -274.960938 72.597656 -294.953125 96.921875 -309.359375 C 121.253906 -323.773438 150.15625 -330.984375 183.625 -330.984375 C 221.75 -330.984375 253.359375 -321.84375 278.453125 -303.5625 C 303.554688 -285.28125 319.828125 -260.019531 327.265625 -227.78125 L 260.796875 -227.78125 C 255.835938 -242.96875 246.847656 -254.820312 233.828125 -263.34375 C 220.816406 -271.875 204.082031 -276.140625 183.625 -276.140625 C 151.082031 -276.140625 125.976562 -265.832031 108.3125 -245.21875 C 90.644531 -224.613281 81.8125 -196.332031 81.8125 -160.375 C 81.8125 -124.425781 90.566406 -96.613281 108.078125 -76.9375 C 125.585938 -57.257812 149.375 -47.421875 179.4375 -47.421875 C 208.882812 -47.421875 231.125 -55.398438 246.15625 -71.359375 C 261.1875 -87.316406 270.25 -108.3125 273.34375 -134.34375 L 191.0625 -134.34375 L 191.0625 -178.984375 L 333.3125 -178.984375 L 333.3125 0 L 278.453125 0 L 273.8125 -42.765625 C 263.269531 -27.273438 250.097656 -15.34375 234.296875 -6.96875 C 218.492188 1.394531 198.347656 5.578125 173.859375 5.578125 Z M 173.859375 5.578125 "/></g></g></g><g fill="#0d0d0d" fill-opacity="1"><g transform="translate(360.195778, 378.380257)"><g><path d="M 140.859375 5.578125 C 118.546875 5.578125 98.476562 0.460938 80.65625 -9.765625 C 62.832031 -19.992188 48.726562 -34.171875 38.34375 -52.296875 C 27.96875 -70.429688 22.78125 -91.425781 22.78125 -115.28125 C 22.78125 -139.144531 28.046875 -160.140625 38.578125 -178.265625 C 49.117188 -196.398438 63.296875 -210.582031 81.109375 -220.8125 C 98.929688 -231.039062 119.003906 -236.15625 141.328125 -236.15625 C 163.328125 -236.15625 183.234375 -231.039062 201.046875 -220.8125 C 218.867188 -210.582031 232.972656 -196.398438 243.359375 -178.265625 C 253.742188 -160.140625 258.9375 -139.144531 258.9375 -115.28125 C 258.9375 -91.425781 253.742188 -70.429688 243.359375 -52.296875 C 232.972656 -34.171875 218.789062 -19.992188 200.8125 -9.765625 C 182.84375 0.460938 162.859375 5.578125 140.859375 5.578125 Z M 140.859375 -46.015625 C 156.347656 -46.015625 169.828125 -51.828125 181.296875 -63.453125 C 192.765625 -75.078125 198.5 -92.351562 198.5 -115.28125 C 198.5 -138.21875 192.765625 -155.5 181.296875 -167.125 C 169.828125 -178.75 156.503906 -184.5625 141.328125 -184.5625 C 125.515625 -184.5625 111.953125 -178.75 100.640625 -167.125 C 89.328125 -155.5 83.671875 -138.21875 83.671875 -115.28125 C 83.671875 -92.351562 89.328125 -75.078125 100.640625 -63.453125 C 111.953125 -51.828125 125.359375 -46.015625 140.859375 -46.015625 Z M 140.859375 -46.015625 "/></g></g></g><g fill="#0d0d0d" fill-opacity="1"><g transform="translate(641.910697, 378.380257)"><g><path d="M 30.21875 0 L 30.21875 -230.578125 L 83.21875 -230.578125 L 88.796875 -187.34375 C 97.160156 -202.21875 108.546875 -214.070312 122.953125 -222.90625 C 137.367188 -231.738281 154.335938 -236.15625 173.859375 -236.15625 L 173.859375 -173.390625 L 157.125 -173.390625 C 144.113281 -173.390625 132.492188 -171.375 122.265625 -167.34375 C 112.035156 -163.320312 104.050781 -156.351562 98.3125 -146.4375 C 92.582031 -136.519531 89.71875 -122.726562 89.71875 -105.0625 L 89.71875 0 Z M 30.21875 0 "/></g></g></g><g fill="#0d0d0d" fill-opacity="1"><g transform="translate(821.817727, 378.380257)"><g><path d="M 143.1875 5.578125 C 119.625 5.578125 98.851562 0.460938 80.875 -9.765625 C 62.90625 -19.992188 48.726562 -34.25 38.34375 -52.53125 C 27.96875 -70.8125 22.78125 -91.726562 22.78125 -115.28125 C 22.78125 -138.84375 27.96875 -159.765625 38.34375 -178.046875 C 48.726562 -196.328125 62.90625 -210.582031 80.875 -220.8125 C 98.851562 -231.039062 119.625 -236.15625 143.1875 -236.15625 C 172.625 -236.15625 197.414062 -228.484375 217.5625 -213.140625 C 237.707031 -197.804688 250.566406 -176.65625 256.140625 -149.6875 L 193.390625 -149.6875 C 190.285156 -160.84375 184.160156 -169.597656 175.015625 -175.953125 C 165.878906 -182.304688 155.113281 -185.484375 142.71875 -185.484375 C 126.289062 -185.484375 112.34375 -179.285156 100.875 -166.890625 C 89.40625 -154.492188 83.671875 -137.289062 83.671875 -115.28125 C 83.671875 -93.28125 89.40625 -76.082031 100.875 -63.6875 C 112.34375 -51.289062 126.289062 -45.09375 142.71875 -45.09375 C 155.113281 -45.09375 165.878906 -48.191406 175.015625 -54.390625 C 184.160156 -60.585938 190.285156 -69.421875 193.390625 -80.890625 L 256.140625 -80.890625 C 250.566406 -54.859375 237.707031 -33.9375 217.5625 -18.125 C 197.414062 -2.320312 172.625 5.578125 143.1875 5.578125 Z M 143.1875 5.578125 "/></g></g></g><g fill="#0d0d0d" fill-opacity="1"><g transform="translate(1100.743405, 378.380257)"><g><path d="M 142.25 5.578125 C 119.007812 5.578125 98.398438 0.617188 80.421875 -9.296875 C 62.441406 -19.210938 48.335938 -33.15625 38.109375 -51.125 C 27.890625 -69.101562 22.78125 -89.867188 22.78125 -113.421875 C 22.78125 -137.285156 27.816406 -158.515625 37.890625 -177.109375 C 47.960938 -195.710938 61.90625 -210.203125 79.71875 -220.578125 C 97.539062 -230.960938 118.539062 -236.15625 142.71875 -236.15625 C 165.34375 -236.15625 185.332031 -231.195312 202.6875 -221.28125 C 220.039062 -211.363281 233.597656 -197.800781 243.359375 -180.59375 C 253.117188 -163.394531 258 -144.257812 258 -123.1875 C 258 -119.78125 257.921875 -116.21875 257.765625 -112.5 C 257.617188 -108.78125 257.390625 -104.90625 257.078125 -100.875 L 81.8125 -100.875 C 83.050781 -82.90625 89.328125 -68.804688 100.640625 -58.578125 C 111.953125 -48.347656 125.664062 -43.234375 141.78125 -43.234375 C 153.875 -43.234375 164.023438 -45.941406 172.234375 -51.359375 C 180.453125 -56.785156 186.570312 -63.835938 190.59375 -72.515625 L 251.03125 -72.515625 C 246.695312 -57.953125 239.492188 -44.703125 229.421875 -32.765625 C 219.347656 -20.835938 206.945312 -11.460938 192.21875 -4.640625 C 177.5 2.167969 160.84375 5.578125 142.25 5.578125 Z M 142.71875 -187.8125 C 128.15625 -187.8125 115.289062 -183.703125 104.125 -175.484375 C 92.96875 -167.273438 85.84375 -154.800781 82.75 -138.0625 L 197.578125 -138.0625 C 196.640625 -153.25 191.054688 -165.335938 180.828125 -174.328125 C 170.609375 -183.316406 157.90625 -187.8125 142.71875 -187.8125 Z M 142.71875 -187.8125 "/></g></g></g><g fill="#0d0d0d" fill-opacity="1"><g transform="translate(1378.739399, 378.380257)"><g><path d="M 30.21875 0 L 30.21875 -334.703125 L 89.71875 -334.703125 L 89.71875 0 Z M 30.21875 0 "/></g></g></g></g></g></g></svg>